<?xml version="1.0" encoding="utf-8"?>
<!-- Generator: Adobe Illustrator 20.1.0, SVG Export Plug-In . SVG Version: 6.00 Build 0)  -->
<svg version="1.1" id="Layer_1" xmlns="http://www.w3.org/2000/svg" xmlns:xlink="http://www.w3.org/1999/xlink" x="0px" y="0px"
	 viewBox="0 0 1024 1280" style="enable-background:new 0 0 1024 1280;" xml:space="preserve">
<style type="text/css">
	.st0{fill:none;stroke:#000000;stroke-miterlimit:10;}
	.st1{fill:none;stroke:#000000;stroke-width:3;stroke-linecap:round;stroke-linejoin:round;stroke-miterlimit:10;}
	<defs>
		<style>
			#bottom_x5F_line, #top_x5F_line{
		stroke-dasharray:924;
		stroke-dashoffset:0;
		
		-webkit-animation: line 2s linear forwards;
				-o-animation: line 2s linear forwards;
				-moz-animation: line 2s linear forwards;
				animation: line 2s linear forwards;

	}
	@-webkit-keyframes line{
				from{
					stroke-dashoffset:610;
				}
				to{
					stroke-dashoffset:0;
				}
			}
			
			
#a_x5F_one, #a_x5F_two, #a_x5F_three, #b_x5F_one, #b_x5F_two, #b_x5F_three, #o_x5F_one, #o_x5F_two, #u_x5F_one, #u_x5F_two, #t_x5F_one, #t_x5F_two, #t_x5F_three, #m_x5F_one, #m_x5F_two, #m_x5F_three, #m_x5F_four, #e_x5F_one, #e_x5F_two, #e_x5F_three{
	-webkit-animation: text 2s linear forwards;
				-o-animation: text 2s linear forwards;
				-moz-animation: text 2s linear forwards;
				animation: text 2s linear forwards;
}
	
@-webkit-keyframes text{
				
				to{
					stroke-dashoffset:0;
				}
			}	

#a_x5F_one{
	stroke-dasharray:258;
	stroke-dashoffset:258;
}
#a_x5F_two{
	stroke-dasharray:45;
	stroke-dashoffset:45;
}
#a_x5F_three{
	stroke-dasharray:63;
	stroke-dashoffset:63;
}

#b_x5F_one{
	stroke-dasharray:352;
	stroke-dashoffset:352;
}
#b_x5F_two{
	stroke-dasharray:70;
	stroke-dashoffset:70;
}
#b_x5F_three{
	stroke-dasharray:70;
	stroke-dashoffset:70;
}

#o_x5F_one{
	stroke-dasharray:365;
	stroke-dashoffset:365;
}
#o_x5F_two{
	stroke-dasharray:196;
	stroke-dashoffset:196;
}

#u_x5F_one{
	stroke-dasharray:291;
	stroke-dashoffset:291;
}
#u_x5F_two{
	stroke-dasharray:216;
	stroke-dashoffset:216;
}

#t_x5F_one{
	stroke-dasharray:84;
	stroke-dashoffset:84;	
}
#t_x5F_two{
	stroke-dasharray:126;
	stroke-dashoffset:126;
}
#t_x5F_three{
	stroke-dasharray:126;
	stroke-dashoffset:126;
}

#m_x5F_one{
	stroke-dasharray:122;
	stroke-dashoffset:122;
}
#m_x5F_two{
	stroke-dasharray:269;
	stroke-dashoffset:269;
}
#m_x5F_three{
	stroke-dasharray:133;
	stroke-dashoffset:133;
}
#m_x5F_four{
	stroke-dasharray:121;
	stroke-dashoffset:121;
}

#e_x5F_one{
	stroke-dasharray:90;
	stroke-dashoffset:90;
}
#e_x5F_two{
	stroke-dasharray:245;
	stroke-dashoffset:245;
}
#e_x5F_three{
	stroke-dasharray:87;
	stroke-dashoffset:87;
}
		</style>
	</defs>

</style>
<line id="bottom_x5F_line" class="st0" x1="37.5" y1="522.8" x2="961.5" y2="522.8"/>
<line id="top_x5F_line" class="st0" x1="961.5" y1="757.2" x2="37.5" y2="757.2"/>
<g id="A">
	<polyline id="a_x5F_one" class="st1" points="73.4,699.8 122.7,579.7 172.2,698.9 	"/>
	<polyline id="a_x5F_two" class="st1" points="122.8,640.8 132.6,664 112.6,664 	"/>
	<polyline id="a_x5F_three" class="st1" points="99.7,700.3 104.5,688.1 141.6,688.1 146.7,700.1 	"/>
</g>
<g id="B">
	<path id="b_x5F_one" class="st1" d="M193.7,701.8l0.5-118.9h47.5c41.3,1.5,38.8,49.3,26,59.1c15.3,10.7,12.2,53.6-21,58.1h-28.8"/>
	<path id="b_x5F_two" class="st1" d="M216.3,605.4h22.5c18.9,0,13.8,24,0.8,24c-13.1,0-8.3,0-8.3,0"/>
	<path id="b_x5F_three" class="st1" d="M216.3,653.5h22.5c18.9,0,13.8,24,0.8,24c-13.1,0-8.3,0-8.3,0"/>
</g>
<g id="O">
	<path id="o_x5F_one" class="st1" d="M420.9,658.9c-7.4,27.2-32.2,47.2-61.6,47.2c-35.2,0-63.7-28.5-63.7-63.7
		c0-35.2,28.5-63.7,63.7-63.7c29.1,0,53.6,19.5,61.3,46.3"/>
	<path id="o_x5F_two" class="st1" d="M326.7,626.2c5.7-12.6,18.3-21.3,33.2-21.3c20.1,0,36.4,16.2,36.4,36.4s-16.2,36.4-36.4,36.4
		c-14.1,0-26.4-8.1-32.5-20"/>
</g>
<g id="U">
	<path id="u_x5F_one" class="st1" d="M532.6,582.2v80.4c-1.5,48.4-81.3,58.1-87.1,0.2v-80.5"/>
	<path id="u_x5F_two" class="st1" d="M508.5,585.2v78.1c0,23.1-37.6,27.3-39.1,0v-78.1"/>
</g>
<g id="T">
	<line id="t_x5F_one" class="st1" x1="554.3" y1="582.9" x2="638.5" y2="582.9"/>
	<polyline id="t_x5F_two" class="st1" points="554.3,606.9 584.4,606.9 584.2,703.1 	"/>
	<polyline id="t_x5F_three" class="st1" points="608,703.1 608.1,606.9 638.5,606.9 	"/>
</g>
<g id="M">
	<line id="m_x5F_four" class="st1" x1="708.1" y1="703.1" x2="707.9" y2="581.4"/>
	<polyline id="m_x5F_three" class="st1" points="806.2,580.8 768,635.6 730.1,580.8 	"/>
	<polyline id="m_x5F_two" class="st1" points="732.4,702.4 732.4,628.7 767.7,677.9 803.5,628.7 804.2,703.1 	"/>
	<line id="m_x5F_one" class="st1" x1="828.1" y1="580.8" x2="828.6" y2="703.1"/>
</g>
<g id="E">
	<polyline id="e_x5F_two" class="st1" points="921,581.4 858.6,581.4 858.6,701.6 921,701.6 	"/>
	<polyline id="e_x5F_one" class="st1" points="921,677.6 882.7,677.6 882.7,653.5 910.4,653.5 	"/>
	<polyline id="e_x5F_three" class="st1" points="908.9,629.5 882.7,629.5 882.7,606.9 921,606.9 	"/>
</g>
</svg>
