
<svg version="1.1" id="Layer_1" xmlns="http://www.w3.org/2000/svg" xmlns:xlink="http://www.w3.org/1999/xlink" x="0px" y="0px"
	 viewBox="0 0 425 114.5" style="enable-background:new 0 0 425 114.5;" xml:space="preserve">
<style type="text/css">
	.st0{fill:none;stroke:#000000;stroke-miterlimit:10;}
	.st1{fill:none;stroke:#000000;stroke-linecap:round;stroke-linejoin:round;stroke-miterlimit:10;}
	<defs>
		<style>
#bottom_x5F_line, #top_x5F_line{
		stroke-dasharray:397;
		stroke-dashoffset:0;
		
		-webkit-animation: line 2s linear forwards;
				-o-animation: line 2s linear forwards;
				-moz-animation: line 2s linear forwards;
				animation: line 2s linear forwards;

	}
	@-webkit-keyframes line{
				from{
					stroke-dashoffset:397;
				}
				to{
					stroke-dashoffset:300;
				}
			}
			
            #c_x5F_one, #c_x5F_two, #o_x5F_one, #o_x5F_two, #a_x5F_three, #a_x5F_two,#a_x5F_one,#t_x5F_three_1_, #t_x5F_one_1_,#t_x5F_one,#t_x5F_two,#t_x5F_three,#t_x5F_two_1_,#n_x5F_four,#n_x5F_three,#n_x5F_two,#n_x5F_one,#c_x5F_two_1_,#c_x5F_one_1_{
            
            -webkit-animation: text 2s linear forwards;
            -o-animation: text 2s linear forwards;
            -moz-animation: text 2s linear forwards;
            animation: text 2s linear forwards;
}
	
@-webkit-keyframes text{
				
				to{
					stroke-dashoffset:0;
				}
			}
            
            
#c_x5F_one{
	stroke-dasharray:96;
	stroke-dashoffset:96;
}	

            #c_x5F_two{
			stroke-dasharray:62;
            stroke-dashoffset:62;
			}
			
            #o_x5F_one{
			stroke-dasharray:142;
            stroke-dashoffset:142;
			}
			#o_x5F_two{
			stroke-dasharray:79;
            stroke-dashoffset:79;
			}
            #a_x5F_three{
            stroke-dasharray:120;
            stroke-dashoffset:120;
            }
            #a_x5F_two{
             stroke-dasharray:120;
            stroke-dashoffset:120;
            }
            #a_x5F_one{
             stroke-dasharray:120;
            stroke-dashoffset:120;
            }
            #t_x5F_three_1_{
            stroke-dasharray:120;
            stroke-dashoffset:120;
            }
            #t_x5F_one_1_{
            stroke-dasharray:120;
            stroke-dashoffset:120;
            }
            #t_x5F_two_1_{
            stroke-dasharray:120;
            stroke-dashoffset:120;
            }
            #t_x5F_three{
            stroke-dasharray:120;
            stroke-dashoffset:120;
            }
            #t_x5F_two{
            stroke-dasharray:120;
            stroke-dashoffset:120;
            }
            #t_x5F_one{
            stroke-dasharray:120;
            stroke-dashoffset:120;
            }
            #n_x5F_four{
            stroke-dasharray:120;
            stroke-dashoffset:120;
            }
            #n_x5F_three{
            stroke-dasharray:120;
            stroke-dashoffset:120;
            }
            #n_x5F_two{
            stroke-dasharray:120;
            stroke-dashoffset:120;
            }
            #n_x5F_one{
            stroke-dasharray:120;
            stroke-dashoffset:120;
            }
            #c_x5F_two_1_{
            stroke-dasharray:120;
            stroke-dashoffset:120;
            }
            #c_x5F_one_1_{
            stroke-dasharray:120;
            stroke-dashoffset:120;
            }

		</style>
			</defs>
</style>
<g>
	<line id="bottom_x5F_line" class="st0" x1="13.7" y1="6.8" x2="411.4" y2="6.8"/>
	<line id="top_x5F_line" class="st0" x1="411.4" y1="107.7" x2="13.7" y2="107.7"/>
</g>
<polyline id="a_x5F_three" class="st1" points="253.6,80.7 273.2,32.9 292.9,80.7 "/>
<polyline id="a_x5F_two" class="st1" points="272.9,56.9 276.7,66.3 269.2,66.3 "/>
<polyline id="a_x5F_one" class="st1" points="263.7,80.3 265.9,75.3 280.4,75.3 282.5,80.3 "/>
<line id="t_x5F_three_1_" class="st1" x1="352.2" y1="34.3" x2="386.2" y2="34.3"/>
<polyline id="t_x5F_two_1_" class="st1" points="352.2,43.3 365.4,43.3 365.2,80.7 "/>
<polyline id="t_x5F_one_1_" class="st1" points="374.5,80.7 374.5,43.3 386.2,43.3 "/>
<line id="t_x5F_three" class="st1" x1="244.2" y1="34.3" x2="211.2" y2="34.3"/>
<polyline id="t_x5F_two" class="st1" points="222.7,80.8 222.7,43.3 211.2,43.3 "/>
<polyline id="t_x5F_one" class="st1" points="244.2,43.3 232.4,43.3 232.5,80.8 "/>
<polyline id="n_x5F_four" class="st1" points="184.7,33.8 184.7,62.8 164.1,33.8 "/>
<polyline id="n_x5F_three" class="st1" points="185.3,80.8 164.7,51.8 164.7,80.8 "/>
<line id="n_x5F_two" class="st1" x1="155.7" y1="33.8" x2="155.7" y2="80.8"/>
<line id="n_x5F_one" class="st1" x1="194.1" y1="33.8" x2="194.2" y2="80.8"/>
<path id="o_x5F_one" class="st1" d="M136.3,64.1c-3,10.5-12.6,18.2-24.1,18.2c-13.8,0-25-11.2-25-25s11.2-25,25-25
	c11.2,0,20.7,7.4,23.9,17.6"/>
<path id="o_x5F_two" class="st1" d="M99.7,50.2c2.5-4.6,7.4-7.8,13.1-7.8c8.2,0,14.8,6.6,14.8,14.8s-6.6,14.8-14.8,14.8
	c-5.9,0-11-3.4-13.4-8.4"/>
<path id="c_x5F_one" class="st1" d="M72.5,79.6c-2.9,1.3-6.2,2-9.6,2c-13.4,0-24.3-10.9-24.3-24.3S49.5,33,62.9,33
	c3.4,0,6.7,0.7,9.7,2"/>
<path id="c_x5F_two" class="st1" d="M70.8,68.5c-2.3,1.7-5.2,2.7-8.3,2.7c-7.8,0-14.2-6.4-14.2-14.2s6.4-14.2,14.2-14.2
	c3.1,0,5.9,1,8.2,2.6"/>
<path id="c_x5F_one_1_" class="st1" d="M339.5,79.6c-2.9,1.3-6.2,2-9.6,2c-13.4,0-24.3-10.9-24.3-24.3S316.5,33,330,33
	c3.4,0,6.7,0.7,9.7,2"/>
<path id="c_x5F_two_1_" class="st1" d="M337.8,68.5c-2.3,1.7-5.2,2.7-8.3,2.7c-7.8,0-14.2-6.4-14.2-14.2s6.4-14.2,14.2-14.2
	c3.1,0,5.9,1,8.2,2.6"/>
</svg>
