 <svg version="1.1" id="Layer_2" xmlns="http://www.w3.org/2000/svg" xmlns:xlink="http://www.w3.org/1999/xlink" x="0px" y="0px"
	 viewBox="0 0 425 114" style="enable-background:new 0 0 425 114;" xml:space="preserve">
<style type="text/css">
	.st0{fill:none;stroke:#000000;stroke-miterlimit:10;}
	.st1{fill:none;stroke:#000000;stroke-linecap:round;stroke-linejoin:round;stroke-miterlimit:10;}
</style>
	
	
	<defs>
		<style>
			#bottom_x5F_line, #top_x5F_line{
		stroke-dasharray:397;
		stroke-dashoffset:0;
		
		-webkit-animation: line 2s linear forwards;
				-o-animation: line 2s linear forwards;
				-moz-animation: line 2s linear forwards;
				animation: line 2s linear forwards;

	}
	@-webkit-keyframes line{
				from{
					stroke-dashoffset:397;
				}
				to{
					stroke-dashoffset:300;
				}
			}
			
			
			#s_one, #s_two, #k_one, #k_two, #k_three, #k_four, #i_one, #i_two, #l_one, #l_two, #l2_one, #l2_two, #s2_one, #s2_two{
			
			-webkit-animation: text 2s linear forwards;
            -o-animation: text 2s linear forwards;
            -moz-animation: text 2s linear forwards;
            animation: text 2s linear forwards;
			}
			
			
			@-webkit-keyframes text{
				
				to{
					stroke-dashoffset:0;
				}
			}
            
			
		#s_one{
			
			stroke-dasharray:86;
	stroke-dashoffset:86;
			}
			
		#s_two{
			stroke-dasharray:88.42;
	stroke-dashoffset:88.42;
			}	
			
		#k_one{
			stroke-dasharray:50;
	stroke-dashoffset:50;
			}
		#k_two{
			stroke-dasharray:33;
	stroke-dashoffset:33;
			}
		#k_three{
			stroke-dasharray:60;
	stroke-dashoffset:60;
			}	
			#k_four{
			stroke-dasharray:36;
	stroke-dashoffset:36;
			}
			#i_one{
			stroke-dasharray:50;
	stroke-dashoffset:50;
			}
			#i_two{
			stroke-dasharray:50;
	stroke-dashoffset:50;
			}
			
			#l_one{
			stroke-dasharray:80;
	stroke-dashoffset:80;
			}
			#l_two{
			stroke-dasharray:60;
	stroke-dashoffset:60;
			}
			#l2_one{
			stroke-dasharray:80;
			stroke-dashoffset:80;
			}
			#l2_two{
			stroke-dasharray:60;
			stroke-dashoffset:60;
			}
			#s2_one{
			stroke-dasharray:86;
	stroke-dashoffset:86;
			}
			#s2_two{
			stroke-dasharray:88.42;
	stroke-dashoffset:88.42;
			}
		</style>
	</defs>
<g>
	<line id="bottom_x5F_line" class="st0" x1="13.7" y1="6.6" x2="411.4" y2="6.6"/>
	<line id="top_x5F_line" class="st0" x1="411.4" y1="107.4" x2="13.7" y2="107.4"/>
</g>
<path id="s_one" class="st1" d="M136,31c-8-7-29.6-2.1-26,15c0.4,5.2,5.4,7.8,9.7,9.3c2.1,0.7,4.2,1.4,5.9,2.7
	c1.6,1.2,3.5,3.5,3,5.6s-2.8,3.4-4.7,3.8c-4.7,0.8-9.6-1.2-13.4-3.9"/>
<path id="s_two" class="st1" d="M134.5,40.5c-3.5-1.9-8.5-4-12.5-2.3c-1.1,0.5-2,1.3-2.5,2.4c-0.7,1.6,0,3.6,1.3,4.8
	c1.3,1.1,2.9,1.5,4.5,2c1.7,0.5,3.3,1.3,4.9,2.1c2.2,1.1,4.3,2.5,5.8,4.4c3.6,4.6,3.5,11.9,0.2,16.6c-1.8,2.6-4.6,5.3-7.8,6.1
	c-11,4-20-3-20-3"/>
	
<line class="st1" id="k_one" x1="148.5" y1="27.5" x2="148.5" y2="77.5"/>
<polyline class="st1" id="k_two" points="169.5,27.5 158.5,42.5 158.5,27.5 "/>
<polyline class="st1" id="k_three" points="182.5,77.5 164.5,51.5 181.5,28.5 "/>
<polyline class="st1" id="k_four" points="158.5,77.5 158.5,61.5 170.5,77.5 "/>
	
<line class="st1" id="i_one" x1="190.5" y1="27.5" x2="190.5" y2="77.5"/>
<line class="st1" id="i_two" x1="199.5" y1="77.5" x2="199.5" y2="27.5"/>
	
<polyline class="st1" id="l_one" points="212.5,27.5 212.5,76.5 240.5,76.5 "/>
<polyline class="st1" id="l_two" points="240.5,67.5 222.5,67.5 222.5,27.5 "/>
	
<g id="letter_x5F_l_1_">
	<polyline class="st1" id="l2_one" points="250.5,27.5 250.5,76.5 278.5,76.5 	"/>
	<polyline class="st1" id="l2_two" points="278.5,67.5 260.5,67.5 260.5,27.5 	"/>
</g>
	
<path class="st1"  id="s2_one" d="M287.5,63.5c14,11,27-2,14-6c-20-3-20-38,11-27"/>
	
<path class="st1" id="s2_two" d="M311.5,40.5c-3-1.8-6.3-2.7-9.9-2c-1.8,0.4-3.6,1.3-4,3.1c-0.2,1,0.1,2.1,0.8,3c0.6,0.9,1.5,1.5,2.4,2.1
	c3.5,2.3,7.9,3.1,11.2,5.7c3.2,2.5,5.2,6.2,5.1,10.3c-0.1,6.3-4.6,11.5-10.5,13.4c-3.9,1.3-8.1,1.3-12.2,0.8c-2.7-0.3-6.1-1-7.8-3.3
	"/>
	
</svg>
